<mxfile host="app.diagrams.net" modified="2024-07-04T10:59:35.409Z" agent="Mozilla/5.0 (Windows NT 10.0; Win64; x64) AppleWebKit/537.36 (KHTML, like Gecko) Chrome/126.0.0.0 Safari/537.36" version="24.6.4" etag="FveqFdYnMYuckGxNAhgE" type="github">
  <diagram name="หน้า-1" id="b7yW1LsUpy_g2Xv4bKEs">
    <mxGraphModel>
      <root>
        <mxCell id="0" />
        <mxCell id="1" parent="0" />
      </root>
    </mxGraphModel>
  </diagram>
</mxfile>
